<?xml version="1.0" encoding="UTF-8"?>
<svg version="1.1" viewBox="0 0 2048 1401" width="" height="50" xmlns="http://www.w3.org/2000/svg">
<path transform="translate(0)" d="m0 0h2048v1401h-2048z" fill="#FCFBF9"/>
<path transform="translate(798,12)" d="m0 0 9 3 8 9 7 8 10 9 11 9 13 12 13 14 7 9 6 4 7-1 8-6 7-1 13 5 11 6 15 10 23 15 29 19 18 11 6 4 19 12 16 10 27 18 18 11 13 9 15 10 6 7 3 9-1 9-13 25-10 17-8 13-9 16-1 4 21-6 49-16 7-3 34-7 18-2-1 10-8 26-7 19-15 35-11 24-8 16-9 16-9 12-11 17-9 12-12 17-14 14-8 10-12 14v3l27 15 17 10 21 14 35 23 19 12 10 9 4 5-1 7-4 9-12 25-11 20-7 11-2 1-1 3h-2l-1 5h-2l1 3h10l28 3 27 5 23 7 17 7 14 7 5 2v2l6 2 26 15 18 13 6 4v2l6 2 11 9 4 5 3 2v2l4 2 1 3 4 2 9 10 11 13 4 5 4 7 9 13 6 12 9 15 8 20 3 9 8 37 5 34 2 26v23l-3 22-7 28-13 37-8 18-12 24-7 10-10 17-12 16-11 13-11 12-13 10-10 5-5 2h-4l-1 5-1 4v53l1 8-7-1-1-2-1-16v-16l1-26-1-2-8 1 2 4-4 5-5 3h-3v2l-12 2v2l-10 4-10 3h-12l-1-2-2 4v9l4 9 8 8 7 3 11-1 10-1-1 4-7 4h-14l-3 1-8-3-7-6-5-9-3-8v-6h-2l-1 5h-11l-9-3-1 18-4 6-10 4h-19l-5-2-3-8-6-2-9-1h-11l-15 3-9-1-9-3-1 5-3 6-5 3-12 2-9-1-9-6-8-8-4-9v-4l-8-1-9-4-7-5v-2l-3-1-1 2v35l-1 2h-9l-5-5-20-40-6-8-2-1-1 6v47h-8l1-54-1-5-9-2-18-2-1 5v57h-9l1-3v-60l4-5-2-8-22-22-8-7-10-9-3-4v-2h-2l-3-3-6-4 1-4-9 6-12 5-7 1h-17l-11-2-11-4-9-6-6-9-4-9-2-15v-41l1-8-25 5-18 5-4-1 29-8 15-3 2-1 1-36 4-1h11v80l2 20 2 7 5 7 12 5 7 1h19l10-4 7-6 3-6 2-14v-7l-2 9-3 3-5-1-5-6-8-15-7-18-10-34-4-19-3-26-1-14v-35l1-24 2-12 4-3-2-9-3-15-11-1v-1h10l-7-27-9-24-6-10 1-4 30-1 22-5 9-3 24-2 1-2h-2l-3-3 1-4 3-4v-2l-2 2-3-8 7-9 2-2 8-1v-2h2v-2l5-1 5 1 3 2v-2l-5-2-19-13-8-5-1-2-6-2-10-5-1-2-5-2-13-7-3-1v-2l-5-1v-2l-5-1-1-2-8-4-1-2-5-1v-2l-5-1v-2l-5-1-4-1-17 38-7 19-4 22-2 4 1 6 4 11-5-2-3-9-6-21-4-17v-59l4-38 3-20 2-21 2-2 9 6 19 9 30 11 21 6 44 8 22 3h25l25-2 28-4 34-8 8-3v-2l-12-6-3-1v-2l-6-2-10-4-4-2v-2l-5-1v-2l-8-2-8-4-11-4-9-2-10-4-8-3h-3v-2h-7l-11-3-22-4-32-6 4-4 16-8 20-11 16-10 21-13 19-14 13-10 10-9 8-7 10-9 8-7 15-15 8-11 10-11 11-14 11-15 12-17 10-15 14-25 13-23 17-35 3-8-40 10-26 9-15 6-29 12-29 15-17 10-33 22-14 10-9 6-5 5-13 11-11 9-13 12-24 24-8 7-11 12-8 9-6 9-1-3 2-18 6-25 8-46 1-8v-22l-6-16 1-3 7 14 1-1 2-29v-45l-2-31-4-37-5-30-8-36-7-26-17-52-10-24-13-24-11-17-10-16-7-13z" fill="#F0D1A7"/>
<path transform="translate(814,140)" d="m0 0 1 4-7 20-14 34-12 36-12 46-7 40-6 50-1 10-1 36v48l4 35 4 24v6l-4-4-8-13-16-24-12-17-14-18-11-13-9-11-7-7-7-8-12-13-22-22-11-9-12-10-12-9-15-11-17-12-22-14-36-21-16-8-20-12-3-1 5 22 9 37 6 20 9 27 8 18 8 17 12 22 11 18 16 24 13 16 9 11 10 11 7 8 11 12 13 13 11 9 10 8 14 11 20 14 12 9 2 3-10-3-23-7-23-3-22-1-15 2-25 6-18 7-16 8-10 6-15 12-8 6v3l12 5 21 6 37 8 44 8 22 2h70l32-3 22-4h8v9l-1 11v24l4 33 4 24 5 17 3 9-7 10-15 26-8 11-13 21-10 15-12 19-21 31-8 11-9 10-11 9-3 2-9-6-13-8-36-24-25-16-26-17-18-11-22-14-17-11-15-10-19-12-17-10-10-7-4-8 1-18 6-11 11-20 16-25 10-15 14-23 6-9v-2l-37-5-18-3-3-1 1-4 4-8 10-13 9-10 9-11 13-14 17-13 24-16 16-9 17-6 9-4v-2l-8-6-23-14-41-26-22-14-17-11-19-12-22-14-15-10-11-7-12-8-16-12-6-5-7-9-2-4 1-8 7-16 10-17 18-27 12-19 10-16 30-45 16-26 10-15 12-20 13-18 8-10 3-2 7 1 19 9 23 13 17 10 17 11 21 13 51 34 20 13 28 17 17 11h2l13-38 16-33 12-26 12-19 8-11 10-14 9-11z" fill="#0499D0"/>
<path transform="translate(798,12)" d="m0 0 9 3 8 9 7 8 10 9 11 9 13 12 13 14 7 9 6 4 7-1 8-6 7-1 13 5 11 6 15 10 23 15 29 19 18 11 6 4 19 12 16 10 27 18 18 11 13 9 15 10 6 7 3 9-1 9-13 25-10 17-8 13-9 16-1 4 21-6 49-16 7-3 34-7 18-2-1 10-8 26-7 19-15 35-11 24-8 16-9 16-9 12-11 17-9 12-12 17-14 14-8 10-12 14v3l27 15 17 10 21 14 35 23 19 12 10 9 4 5-1 7-4 9-12 25-11 20-7 11-2 1-1 3h-2l-1 5h-2l-2 7-10 15-8 13h-2v3h-2l-1 5-5 8-2 2-6 8-1 4h-2l-1 5h-2v3h-2v3h-2l-2 4-1 4-2 2-2 4h-2l-1 5h-2l-2 6h-2l-1 5h-2v3h-2l-2 4-2 5h-2v3h-2l-2 6-2 2-2 1v3h-2v3h-2l-1 4h-2l-1 3-4 5-1 3-2 2-2 1-1 4-5 5-1 3-8-1-26-14-19-12-17-11-20-13-48-32-6-3v-2l-6-2-10-5-1-2-5-2-13-7-3-1v-2l-5-1v-2l-5-1-1-2-8-4-1-2-5-1v-2l-5-1v-2l-5-1-4-1-17 38-7 19-4 22-2 4 1 6 4 11-5-2-3-9-6-21-4-17v-59l4-38 3-20 2-21 2-2 9 6 19 9 30 11 21 6 44 8 22 3h25l25-2 28-4 34-8 8-3v-2l-12-6-3-1v-2l-6-2-10-4-4-2v-2l-5-1v-2l-8-2-8-4-11-4-9-2-10-4-8-3h-3v-2h-7l-11-3-22-4-32-6 4-4 16-8 20-11 16-10 21-13 19-14 13-10 10-9 8-7 10-9 8-7 15-15 8-11 10-11 11-14 11-15 12-17 10-15 14-25 13-23 17-35 3-8-40 10-26 9-15 6-29 12-29 15-17 10-33 22-14 10-9 6-5 5-13 11-11 9-13 12-24 24-8 7-11 12-8 9-6 9-1-3 2-18 6-25 8-46 1-8v-22l-6-16 1-3 7 14 1-1 2-29v-45l-2-31-4-37-5-30-8-36-7-26-17-52-10-24-13-24-11-17-10-16-7-13z" fill="#A6C25D"/>
<path transform="translate(934,838)" d="m0 0h12l22 2 18 6 11 7 10 9 8 8 7 11 5 10 4 13 1 6v18l-4 11-7 13-6 8-6 7-2 3h-3v2l-5 5-10 7-14 7-8 2h-21v-2l-5 1v-2h-6v-2l-3 1-10-4-13-7v-2l-6-2-8-8-11-15-8-14-4-14-1-7-11-1v-1h10l-7-27-9-24-6-10 1-4 30-1 22-5 9-3z" fill="#A6C25D"/>
<path transform="translate(615,587)" d="m0 0 22 1v1h-14l2 3 15 5 3 3 2 7 6 5 8 4 10 4 5 4 2 4v5l-4 7-4 8-8 6-7 2-14 2-32-1-11-1h-28l-31-7-20-6-10-5 1-4 10-8 13-10 10-6 16-8 18-7 25-6z" fill="#F2FEFE"/>
<path transform="translate(1e3 1051)" d="m0 0h21l27 2 14 3 10 6 6 8 3 9 1 15-2 8-4 7-7 7-12 7h-2l12 21 14 26 9 13v3l-3 1h-14l-5-5-8-16-12-21-8-16-2-1h-25l-1 17-1 42h-15l-1-90v-45z" fill="#120E0E"/>
<path transform="translate(477,272)" d="m0 0 5 1 22 13 21 11 8 5 1 5 13 8 10 9 11 9 3 3v3l-4 1v7l4 10 4 6 1 10-5 6-2 1-15 1-1 3-5-3 1 4 9 11 1 4-6-3-6-5h-9l-10 5-5-1-6-7v-2h-3v6l9 19-1 2-8-16-7-15-9-25-8-27-11-44z" fill="#F2FEFE"/>
<path transform="translate(1198,316)" d="m0 0 6 2 3 3 2 5 1 1v7l-8 20-12 28-7 15-8 16-11 20-9 12-11 17-9 12-12 17-19 19-3-1-3 1-5 2-5 6h-8v-3l-4-1v-2l-3-1v-3l-2-1 1-4 8-10 9-11 9-10 15-20 9-13 12-17 13-23 12-21 12-23 12-26v-4l7-4 5-4z" fill="#9FB767"/>
<path transform="translate(621,1050)" d="m0 0 2 1-1 122-1 12-6 2h-10l-7-8-11-18-7-10-12-20-10-14-11-17-13-22-2-3-1 111h-14l-1-2 1-131 3-1 18 1-2 1 10 16 14 22 12 19 10 15 15 25 7 10 5 7-1-46v-70l1-1z" fill="#120E0E"/>
<path transform="translate(411,1051)" d="m0 0 6 1 3 4 14 34 6 15 15 39 9 26 5 16v2h-15l-5-18-9-27-2-1h-54l-4 10-8 24-4 9-2 2-8-1-5-2 10-25 10-26 8-20 11-27 6-15 5-10 3-7z" fill="#120E0E"/>
<path transform="translate(1142,1051)" d="m0 0h73l4 1 1 4-2 9-5 2-54 1v36l1 1h38l14 1 4 2v10l-1 2-56 2v39l1 11 55 1 3 3v9l-1 1-9 1h-67l-1-1 1-134z" fill="#120E0E"/>
<path transform="translate(926,1050)" d="m0 0h7l3 9v72l-2 22-5 12-6 7-10 7-14 6-7 1h-17l-11-2-11-4-9-6-6-9-4-9-2-15v-41l1-8-25 5-18 5-4-1 29-8 15-3 2-1 1-36 4-1h11v80l2 20 2 7 5 7 12 5 7 1h19l10-4 7-6 4-9 2-10 1-15v-68l2-7z" fill="#120E0E"/>
<path transform="translate(564,1053)" d="m0 0h44l1 69 1 47-5-5-9-13-10-17-14-22-10-15-13-21-11-17-2-5z" fill="#FDFCF9"/>
<path transform="translate(742,1052)" d="m0 0 14 1 13 4 16 7 1 2-15 6-6 1-8-4-4-1h-12l-15 3-10 5-8 7-7 11-4 13v22l4 17 5 10 7 7 9 6 11 3h27l11-1 6 2 3 7-7 3-20 3h-23l-10-2-12-5-10-7-6-7-8-16-3-11-1-10v-12l2-18 5-13 8-11 9-8 10-6 12-5z" fill="#120E0E"/>
<path transform="translate(803,664)" d="m0 0 4 1h3l5 2h1l-1 12-4 30-2 21v59l4 17 6 21-1 7-11-3 2-2v-8l1-4-4-2-11-14-1-2 1-15-4-17-5-18-3-26-3-31 1-15h1l3-9 4-2 7 6v-2h2l2-4z" fill="#F2FEFE"/>
<path transform="translate(1017,1066)" d="m0 0 20 1 15 2 10 4 4 5 1 4v18l-6 7-11 5-24 3h-12l-1-1v-45l1-2z" fill="#EED1A7"/>
<path transform="translate(546,1247)" d="m0 0h8l9 3 7 8 2 6v17l-3 8-7 8-8 4h-8l-8-4-6-8-3-8-1-13 2-9 5-7 7-4z" fill="#FDFBF7"/>
<path transform="translate(359,1240)" d="m0 0h30l5 1 1 13 1 7-4 8-4 7 2 7 8 14 4 8-1 1h-7l-4-5-6-11-7-11-6-4-7-2 1 26 1 7-7 1-2-5v-26l-1-16 1-6-1-13z" fill="#130F0F"/>
<path transform="translate(410,1072)" d="m0 0 4 4 8 18 9 24 3 10-6 1h-38l1-5 12-34 4-12z" fill="#FDFAF5"/>
<path transform="translate(808,743)" d="m0 0h1v15l5-3 5-10 5 5 6-1v7l3 7 1 2-1 3h2l1 3-9 24-4 22-2 4 1 6 4 11-5-2-3-9-6-21-4-17z" fill="#9FB767"/>
<path transform="translate(1054,1239)" d="m0 0 4 1 1 1v64l-1 2h-9l-5-5-20-40-6-8-2-1-1 6v47h-8l1-54-2-9 2-2h9l5 5 7 12 10 19 8 20 2 3 1-7v-50z" fill="#120E0E"/>
<path transform="translate(543,1240)" d="m0 0h16l9 4 6 7 5 11 1 4v15l-4 11-4 6-7 6-11 4h-9l-9-3-7-6-5-10-3-11v-13l3-9 6-9 5-4zm3 7-8 3-5 4-4 8-1 11 2 12 6 10 5 4 5 2h8l8-4 8-9 2-7v-17l-4-9-7-6-7-2z" fill="#120E0E"/>
<path transform="translate(1436,1240)" d="m0 0 9 1 1 9 13 18 10 14 9 11v-20l-1-11 1-8v-9l-5-2v-1h11l1 25v16l-2 12v17l-5-5-9-10-11-15-13-22-3-5-1 2v50l-6 1-1-1v-38l1-20-1-8z" fill="#120E0E"/>
<path transform="translate(1109,1240)" d="m0 0h22l5 5v4h-23l-10 3-5 5-4 9v12l3 9 7 9 10 5 4 1 12-4 1-3-1-20-5 3-7-1-5-3 2-2 11-4h8l4 3v13l-1 14-3 6-5 3-12 2-9-1-9-6-8-8-4-9-1-4v-12l3-12 5-8 6-5z" fill="#120E0E"/>
<path transform="translate(526,420)" d="m0 0 3 3 9 16 10 16 5 5-2-8-2-9 5 2 8 8 7 10 5 5 3 6 5 5 2 5 5 3 7 12 5 9v5h-3l1 7 2 4-7-6-9-10-9-11-14-17-14-21-10-16-11-19z" fill="#F2FEFE"/>
<path transform="translate(308,1237)" d="m0 0 4 4v6l7 14 4 12 2 3 4 15 5 10 1 7-6-1-3-3-4-17-2-3-4-1h-15l-7 3-7 14-2 11-4-3-1-4 6-16 5-13 11-23 3-11z" fill="#120E0E"/>
<path transform="translate(1388,1238)" d="m0 0 18 1 6 2v4l-28 4-4 4v13l8 1h15l2 2v7l-24-1v20l2 5 4 2h13l10-1-2 5-7 3h-20l-5-2-3-5-1-3-1-13v-17l1-28 4-2z" fill="#120E0E"/>
<path transform="translate(861,1243)" d="m0 0h10l-2 4v7l7 17 4 8 8 24-1 4h-5l-4-8-3-12-2-3-6-1h-12l-7 2-3 8-3 13-1 1h-5l4-16 10-28 7-17z" fill="#120E0E"/>
<path transform="translate(703,1238)" d="m0 0h5l1 1v19l1 8 1 1 9 1h20v-26l3-2 6 1-1 13v21l-1 31-9 1 2-7v-23l-1-1-29-2-1 9v24l-1 1h-6l-1-1-1-32-1-2 2-10 1-24z" fill="#120E0E"/>
<path transform="translate(1582,1240)" d="m0 0h38l1 1v5l-1 1-24 2-6 2-1 3v14h17l12-2v7l-2 1-25 2-1 2v15l2 6 20 3h6l5 7-37-2-4-1z" fill="#120E0E"/>
<path transform="translate(108,1239)" d="m0 0h7l1 13v16h36l-1-26 2-1h6l-1 66h-6l-1-9v-23h-35l1 32h-8v-66z" fill="#120E0E"/>
<path transform="translate(784,1239)" d="m0 0 34 1v6l-1 2-25 1-4 1v17l2 1 23 1v7h-24v25h25l1 3-3 4-6 1-24-1-1-7-1-33v-28z" fill="#120E0E"/>
<path transform="translate(1445,1241)" d="m0 0h18l10 1 6 3v9l-1 10 1 9v22l-5-5-12-16-12-17-5-7-1-7z" fill="#FCF7F1"/>
<path transform="translate(190,1240)" d="m0 0h35v6l-1 1-29 2-1 19 30 1v5l-1 1h-28l1 27 28 1v4l-5 1h-32l1-4v-31-3-29z" fill="#120E0E"/>
<path transform="translate(1290,1238)" d="m0 0 12 1 7 5-4 4h-12l-9 1-9 6-4 8v9l-1 1v9l4 9 8 8 7 3 11-1 10-1-1 4-7 4h-14l-3 1-8-3-7-6-5-9-3-8-1-6v-8l2-9 4-8 9-8 11-5z" fill="#120E0E"/>
<path transform="translate(1541,1239)" d="m0 0h14l-1 9h-17l-8 4-6 8-4 11v9l3 8 7 9 7 4h9l8-1-1 6-5 2-3 1v2l-10-3-9-4-8-7-5-8-2-7v-9l3-12 6-10 6-8 6-3z" fill="#120E0E"/>
<path transform="translate(1218,1239)" d="m0 0h15l3 3 1 4-2 2h-15l-9 3-1 1 1 8 3 5 10 6 7 4 5 1 2 4v17l-4 6-10 4h-19l-5-2v-4h25l5-3v-18l-12-3-9-7-6-7-2-6 1-8 3-5 9-4z" fill="#120E0E"/>
<path transform="translate(883,383)" d="m0 0 3 3 5 11 2-1v32l1 2-3 15-4 13h-2l1 7-1 4v9l4-6 6 1v6l2 2-3 1 1 5-2 8 3 1-7 8-7 7-9 13-1-3 2-18 6-25 8-46 1-8v-22l-6-16z" fill="#9FB767"/>
<path transform="translate(1096,1258)" d="m0 0h2l-1 6 2 10 2 2 4-1h7l9 2 5-1 4-2 1 1 1 20-5 5-10 3-10-4-7-6-6-10-1-5v-12z" fill="#FCF9F4"/>
<path transform="translate(633,1239)" d="m0 0h14l-3 5-2 2-26 4-3 1v11l2 6 12 1h13l1 4-1 1-19 2h-8v30h-7v-64l1-1 7-1z" fill="#120E0E"/>
<path transform="translate(1150,398)" d="m0 0h3v4l1 4-1 3h-2l-2 6-6 10-5 6-2 1-6 8h-2l-2 4-9 13v3l-3 3h-2l-1 5-7 10-5 5-5 6-3 3-5 1-1 2-5 1-2 1 2-4 9-11 9-10 15-20 9-13 12-17 12-21h3z" fill="#A6C25D"/>
<path transform="translate(41,1240)" d="m0 0h49l1 4-2 2-21 3-1 57h-8v-57l-21-5-1-3z" fill="#120E0E"/>
<path transform="translate(415,1240)" d="m0 0h42l8 1 2 3-2 2-13 2h-6l-1 58-6 1-1-40v-19l-21-2-3-1z" fill="#120E0E"/>
<path transform="translate(710,997)" d="m0 0h69l74 1v2l-220 1h-34l-131-1v-1l172-1z" fill="#F1D2A8"/>
<path transform="translate(914,1242)" d="m0 0h8l-4 7-1 4v26l1 16 1 3 6 2h14l2 4h8l3 1v2l-4 1h-34l-3-3-2-34 1-24 2-4z" fill="#120E0E"/>
<path transform="translate(917,952)" d="m0 0 12 1 15 2 18 1 17-2h6l-2 4-8 5-12 4-15 1-17-3-12-4-4-3z" fill="#F1D3AA"/>
<path transform="translate(385,1247)" d="m0 0 5 2 1 2v7l-5 10-3 2h-7l-11-3-2-2-2-10 1-5 6-2z" fill="#FCF8F3"/>
<path transform="translate(1246,109)" d="m0 0h2v18l-4 42-5 41-6 63-3 31-6 81-2 31-2 19h-1v-19l1-16 1-3 5-74 1-21 7-67 7-65 4-47z" fill="#CBC788"/>
<path transform="translate(798,12)" d="m0 0 9 3 8 9 7 8 10 9 11 9 10 9 1 5 1 4-4-1-3-2-4-3v-2l-4-2-9-8v-2l-4-2-6-4v-2l-5-2-4-5v-2h-2v-2h-3l-7-13z" fill="#9FB767"/>
<path transform="translate(1323,429)" d="m0 0 1 2-13 43-8 29-9 31-10 33-13 49-15 56-5 20-4 7-1-3 6-23 10-35 11-40 30-104 12-43 6-20z" fill="#ECCEA4"/>
<path transform="translate(1749,949)" d="m0 0h14v1l-131 11-106 10-30 3h-10v-1l62-7 120-11z" fill="#120E0E"/>
<path transform="translate(1341,1239)" d="m0 0h3l-1 8v53l1 8-7-1-1-2-1-16v-16l1-26-1-2h-6l3-3z" fill="#120E0E"/>
<path transform="translate(974,1239)" d="m0 0h4l1 24v42h-9l1-3v-60z" fill="#120E0E"/>
<path transform="translate(755,380)" d="m0 0h1l1 39 3 20v19l-2 10h3l3-6 3 3-1 7-4 6-3 6 1 14 1 7v8h-1l-4-29-2-20v-48z" fill="#F2FFFF"/>
<path transform="translate(1307,206)" d="m0 0h1v10l-8 54-10 56-13 69-3 15h-2l1-11 10-53 9-48 7-41z" fill="#EBD0A3"/>
<path transform="translate(1168,144)" d="m0 0h1l1 22 1 40 1 85-1 6-2-1-2-102v-47z" fill="#EACFA3"/>
<path transform="translate(689,273)" d="m0 0 6 2 10 6 4 2h6l2-4 8-3 4-1 2 6h2l2-2-1 6-4 12h-4l-18-11-19-12z" fill="#F2FFFF"/>
<path transform="translate(1264,465)" d="m0 0h1l-1 12-11 60-12 62-7 42-2 7h-1v-10l9-50 14-71 8-42z" fill="#E9CFA2"/>
<path transform="translate(1027,1254)" d="m0 0 5 5 6 8 5 1 2-3h2l2-5h1v40h-3l-6-16-12-25z" fill="#FAF6ED"/>
<path transform="translate(777,431)" d="m0 0 5 1 2 3 2 10 3 9v3l-7 3-6 5-4-1-1-6 4-11 1-15z" fill="#F2FFFF"/>
<path transform="translate(825,513)" d="m0 0 5 5 10 13 12 17 14 18 12 16 11 14 8 11-1 2-11-13-11-14-13-16-11-14-13-18-10-15z" fill="#F1D2A8"/>
<path transform="translate(309,1249)" d="m0 0 2 1 4 12 3 8-1 5-9 2-9-1-1-4 8-16z" fill="#FCF7F1"/>
<path transform="translate(481,521)" d="m0 0 6 1 8 6 14 9 22 11 8 5-1 2-6-1-26-13-11-7-5-4-10-5z" fill="#F2FFFF"/>
<path transform="translate(824,264)" d="m0 0 3 4 11 25 10 20 10 17 13 24 8 16 2 5-1 4-8-16-15-28-13-24-12-25-8-19z" fill="#EFD1A7"/>
<path transform="translate(860,1255)" d="m0 0h2l8 15-1 5-3 1h-11l-4-3v-6l8-10z" fill="#FBF7EF"/>
<path transform="translate(1486,1316)" d="m0 0 4 2 32 32 7 8 14 15 11 11 7 8 7 7v2l-4-1-7-8-9-10-8-8-7-8-12-12-7-8-16-16-7-6z" fill="#DBBF98"/>
<path transform="translate(883,383)" d="m0 0 3 3 5 11 2-1v32l1 2-3 15-4 13h-2l-1 2 1-11 4-25v-22l-6-16z" fill="#9FB768"/>
<path transform="translate(1021,453)" d="m0 0h3l9 33 2 15-1 20h-2l-3-32-8-32z" fill="#F0D1A7"/>
<path transform="translate(1091,115)" d="m0 0 2 1 1 16 2 54v14l-3-1v-9l-1-2-1-35z" fill="#F1D2A8"/>
<path transform="translate(849,849)" d="m0 0h26v1h-11l1 5-3 4-3 10v5l-2-3-5-12-4-6z" fill="#9FB768"/>
<path transform="translate(1307,206)" d="m0 0h1v10l-8 54-7 40h-2v-7l8-46z" fill="#F0D1A7"/>
<path transform="translate(1224,1306)" d="m0 0 4 1 3 40 3 31 1 22-2-1-2-16-4-53-1-22h-17v-1z" fill="#E6CEA0"/>
<path transform="translate(1365,269)" d="m0 0h1l-1 9-14 56-6 25-3 4 2-11 11-47 8-32z" fill="#F1D2A8"/>
<path transform="translate(1428,1153)" d="m0 0 5 1 22 11 45 25 23 12v2l2 1-5-1-24-13-23-13-24-13-19-10z" fill="#E1C59D"/>
<path transform="translate(777,321)" d="m0 0 4 2 10 17 7 18-1 2 3 9-5-5-8-20-8-16-2-3z" fill="#F2FFFF"/>
<path transform="translate(759,893)" d="m0 0 9 1 38 9 29 6 22 3 3 2h-13l-22-4-35-8-31-8z" fill="#ECD0A4"/>
<path transform="translate(781,862)" d="m0 0 11 1 36 9 30 9 1 2-12-2-40-11-26-7z" fill="#F1D2A8"/>
<path transform="translate(1166,14)" d="m0 0h2l1 12v81h-1l-1-17-1-56z" fill="#EECFA6"/>
<path transform="translate(1216,459)" d="m0 0h1v17l-6 52-2 19-2-2 1-21 6-47z" fill="#E7CFA0"/>
<path transform="translate(1289,1319)" d="m0 0 2 2 19 67 2 8v5l-2-2-4-13-12-46-5-17z" fill="#F1D2A8"/>
<path transform="translate(1168,1319)" d="m0 0h1l2 54v28h-2l-1-22z" fill="#F1D2A8"/>
<path transform="translate(558,553)" d="m0 0h7l2 1-1 4-16 4-11 5-3-1 6-7 12-4z" fill="#F2FFFF"/>
<path transform="translate(1467,702)" d="m0 0 2 1-5 6-8 7-28 28-8 7-13 13-2-1 32-32 8-7z" fill="#130F0F"/>
<path transform="translate(1081)" d="m0 0h2l1 32v35h-2l-1-29z" fill="#F1D2A8"/>
<path transform="translate(1786,1358)" d="m0 0 6 2 25 13 19 12 15 11 4 5-4-1-8-7-15-10-24-14-18-10z" fill="#CBB18E"/>
<path transform="translate(1199,1319)" d="m0 0h1l2 50v32h-2l-1-31z" fill="#EBD0A3"/>
<path transform="translate(1122,491)" d="m0 0h1l5 23 2 19v10h-2l-3-26-4-15-3-7z" fill="#F1D2A8"/>
<path transform="translate(1168,433)" d="m0 0h2l1 18v24l-1 12h-2z" fill="#EDD0A5"/>
<path transform="translate(1786,382)" d="m0 0v3l-16 17-33 33-2-1 8-8 7-8 17-17 8-7z" fill="#CCB18E"/>
<path transform="translate(1327,87)" d="m0 0 3 1-2 8-7 45-3 12h-1l1-12 5-33 3-19z" fill="#EED0A6"/>
<path transform="translate(1688,1360)" d="m0 0 5 2 17 12 12 9 21 16 1 2-4-1-13-10-20-15-14-10z" fill="#EFD1A6"/>
<path transform="translate(1228,653)" d="m0 0h2v8l-5 27-4 15-2 1 5-29z" fill="#EACFA3"/>
<path transform="translate(1527,1357)" d="m0 0 6 5 7 8 14 14 7 8 7 7v2l-4-1-7-8-9-10-8-8-7-8-7-7z" fill="#EDD0A5"/>
<path transform="translate(1015,1103)" d="m0 0 2 3 3 4h15l7 1v1h-5v2l-11 1h-12l-1-2z" fill="#FAF5EC"/>
<path transform="translate(1440,1319)" d="m0 0 5 4 10 13 11 14 15 20-1 2-22-28-14-17-4-6z" fill="#E8CFA1"/>
<path transform="translate(1239,597)" d="m0 0h1v8l-6 36-2 7h-1v-10l7-39z" fill="#D4C892"/>
<path transform="translate(1246,109)" d="m0 0h2v18l-2 24-1 6-2-1 1-20z" fill="#EBD0A3"/>
<path transform="translate(1602,1362)" d="m0 0 5 2 14 12 11 9 10 9 8 6-4 1-9-9-10-8-14-12-10-8z" fill="#E9CDA2"/>
<path transform="translate(900,948)" d="m0 0 16 2 5 1-4 1-1 6-3 1-10-7z" fill="#9FB768"/>
<path transform="translate(1256,659)" d="m0 0 2 2-2 11-5 20-4 7-1-3 6-23z" fill="#F1D2A8"/>
<path transform="translate(851,445)" d="m0 0 2 1 9 25v6l-3-3-6-15-3-12z" fill="#F1D2A8"/>
<path transform="translate(1183,391)" d="m0 0 1 4-8 16-5 9-2-1v-5l4-1-1-4 6-11 3-6z" fill="#A5C15E"/>
<path transform="translate(512,632)" d="m0 0 5 5 9 6v1l-9-1-10-5 1-4z" fill="#FBFDFB"/>
<path transform="translate(1279,370)" d="m0 0h1v8l-5 29-1 3h-2l1-11 5-27z" fill="#E6CE9F"/>
<path transform="translate(832,1054)" d="m0 0h1v8l-28 3h-18l4-2 40-3z" fill="#BBA781"/>
<path transform="translate(997,975)" d="m0 0h2l-1 3-14 9-12 5-5 1h-21v-2h20l10-3 15-8z" fill="#9DB466"/>
<path transform="translate(1319,1322)" d="m0 0 4 4 11 25 5 12-1 3-16-35-3-6z" fill="#F1D2A8"/>
<path transform="translate(1066,445)" d="m0 0 4 2 6 7 1 3v18l-2-2-2-16-7-10z" fill="#F1D2A8"/>
<path transform="translate(940,602)" d="m0 0h2l-2 9-2 3-5-1-3-5z" fill="#9FB768"/>
<path transform="translate(735,248)" d="m0 0h4v2l5 2 1 3-3 6-4-4-4-2v-6z" fill="#F2FFFF"/>
<path transform="translate(1230,274)" d="m0 0 2 2-3 44h-1l-1-7v-11z" fill="#F1D2A8"/>
<path transform="translate(1266,1361)" d="m0 0 2 4 5 29v7l-2-1-5-31z" fill="#F1D2A8"/>
<path transform="translate(1e3 1356)" d="m0 0 1 3-11 27-5 14-3 1 3-9 14-34z" fill="#ECD0A4"/>
<path transform="translate(936,496)" d="m0 0 3 3 9 23-1 4-4-8-7-18z" fill="#F1D2A8"/>
<path transform="translate(966,648)" d="m0 0 5 2 1 6 4 9-1 4-3-3-5-11z" fill="#F1D2A8"/>
<path transform="translate(1574,1339)" d="m0 0 5 2 13 11 10 8-1 2-13-10-14-12z" fill="#CCB48E"/>
<path transform="translate(1525,1205)" d="m0 0 5 1 28 13-4 1-13-5-16-9z" fill="#D8C096"/>
<path transform="translate(1493,1188)" d="m0 0 5 1 25 13v2l2 1-5-1-24-13z" fill="#D3B993"/>
<path transform="translate(924,611)" d="m0 0 6 5v2l2 1-13-1-4-2 4-3z" fill="#91A75F"/>
<path transform="translate(1350,330)" d="m0 0 1 4-6 25-3 4 2-11 5-21z" fill="#EACFA3"/>
<path transform="translate(1297,280)" d="m0 0 1 2-5 28h-2v-7l4-21z" fill="#EED1A6"/>
<path transform="translate(1786,382)" d="m0 0v3l-16 17v-3l5-5z" fill="#D7CAB9"/>
<path transform="translate(1210,514)" d="m0 0h1v14l-2 19-2-2 1-21z" fill="#C8C488"/>
<path transform="translate(1114,362)" d="m0 0h1l2 21v12l-2 1-1-12z" fill="#F1D2A8"/>
<path transform="translate(1243,156)" d="m0 0 2 1-2 20-2 13h-1v-10l2-21z" fill="#F1D2A8"/>
<path transform="translate(1829,1309)" d="m0 0 5 1 25 11 1 2-6-1-24-11z" fill="#D4B894"/>
<path transform="translate(1325,749)" d="m0 0 6 2 16 11 8 6-1 2-17-12-12-8z" fill="#A6C25D"/>
<path transform="translate(1406,1339)" d="m0 0 5 5 18 24-1 2-12-15-10-14z" fill="#F1D2A8"/>
<path transform="translate(883,383)" d="m0 0 3 3 6 14-1 16h-1l-1-14-6-16z" fill="#F1D2A8"/>
<path transform="translate(1786,1358)" d="m0 0 6 2 25 13 1 3-5-2-26-14z" fill="#EED1A5"/>
<path transform="translate(1159,1094)" d="m0 0 4 5 4 3 4 1v2h-12z" fill="#FEFDFB"/>
<path transform="translate(691,602)" d="m0 0 5 1 4 2v2l4 1 4 4 3 1v2l3 1v2h-2v-2l-6-2v-2l-4-1v-2l-4-1-7-5z" fill="#EDFAF9"/>
<path transform="translate(1264,634)" d="m0 0 1 4-6 22-2 1 1-9 5-17z" fill="#E8CFA1"/>
<path transform="translate(409,469)" d="m0 0 7 3 1 3 4 1 3 6-5-2-4-2-6-7z" fill="#B5E5F3"/>
<path transform="translate(778,157)" d="m0 0h2l3 10 1 4-1 5-2-3-4-12z" fill="#96D7EC"/>
<path transform="translate(1626,1382)" d="m0 0 5 2 11 10 8 6-4 1-9-9-10-8z" fill="#E3C69E"/>
<path transform="translate(1365,269)" d="m0 0h1l-1 9-4 16h-2l1-8 4-15z" fill="#E5C99F"/>
<path transform="translate(1129,1274)" d="m0 0 2 1v9l-5-2-5-4 5-2z" fill="#E7CEA0"/>
<path transform="translate(1246,109)" d="m0 0h2v18l-2 5h-1z" fill="#BBA482"/>
<path transform="translate(1484,1147)" d="m0 0 5 1 17 8 1 2-6-1-17-9z" fill="#B49C7E"/>
<path transform="translate(1167,531)" d="m0 0 2 1 2 20-2 1-2-10-1-11z" fill="#F1D2A8"/>
<path transform="translate(781,862)" d="m0 0 11 1 13 3v2l-10-1-14-4z" fill="#EACFA2"/>
<path transform="translate(1359,728)" d="m0 0 1 3-8 10-6 8-5 4 2-4 10-13z" fill="#BFA785"/>
<path transform="translate(481,521)" d="m0 0 6 1 3 4-1 2-6-1-3-2z" fill="#8FD4EB"/>
<path transform="translate(1233,627)" d="m0 0h3l-2 14-2 7h-1v-10z" fill="#D9CA95"/>
<path transform="translate(1171,275)" d="m0 0h1v16l-1 6-2-1v-14h2z" fill="#F1D2A8"/>
<path transform="translate(1688,1360)" d="m0 0 5 2 14 10 1 2-4-1-16-12z" fill="#E7CEA0"/>
<path transform="translate(1160,1163)" d="m0 0 3 4v2l9 2v1h-13z" fill="#FDFAF6"/>
<path transform="translate(1233,254)" d="m0 0h1v10l-2 12h-1v-13l1-8z" fill="#D9CA95"/>
<path transform="translate(798,12)" d="m0 0 9 3 4 4-1 2-10-5z" fill="#A5C05F"/>
<path transform="translate(1818,1375)" d="m0 0 5 2 13 8 1 2-4-1-15-9z" fill="#DCC199"/>
<path transform="translate(1475,1177)" d="m0 0 5 2 14 8-3 1-17-9z" fill="#EED1A6"/>
<path transform="translate(795,827)" d="m0 0h5l6 2 1 4-13-3z" fill="#F1FCFA"/>
<path transform="translate(1291,310)" d="m0 0h1l-1 11-2 7h-2l2-14z" fill="#E8CFA1"/>
<path transform="translate(1009,108)" d="m0 0 3 1v17l-2-3z" fill="#F1D2A8"/>
<path transform="translate(1319,1322)" d="m0 0 4 4 5 11-1 3-8-15z" fill="#EED1A6"/>
<path transform="translate(1808,1299)" d="m0 0 6 1 13 7-3 1-16-8z" fill="#B0997B"/>
<path transform="translate(1521,1165)" d="m0 0 6 1 11 6-4 1-13-7z" fill="#B69E7F"/>
<path transform="translate(819,825)" d="m0 0h2l5 13-5-2-2-5z" fill="#A4BF60"/>
<path transform="translate(1300,262)" d="m0 0 1 2-3 16-2 1 1-11 2-7z" fill="#E6CE9F"/>
<path transform="translate(1631,198)" d="m0 0 1 2-6 12-4 6-1-3 4-7z" fill="#B09A7B"/>
<path transform="translate(1527,1357)" d="m0 0 6 5 7 8 1 2-4-2-11-11z" fill="#E9CFA2"/>
<path transform="translate(1126,481)" d="m0 0 2 1-2 5-3 4h-2l-1-3z" fill="#A6C15E"/>
<path transform="translate(1279,370)" d="m0 0h1v8l-2 8-2 1 1-10z" fill="#DDCB98"/>
<path transform="translate(1556,1390)" d="m0 0 4 1 8 8v2l-4-1-7-8z" fill="#CAB28C"/>
<path transform="translate(890,666)" d="m0 0 7 4 2 4-1 3-5-5-3-4z" fill="#F1D2A8"/>
<path transform="translate(1589,1351)" d="m0 0 5 2 8 7-1 2-12-9z" fill="#BDA684"/>
<path transform="translate(821,652)" d="m0 0 6 2 3 3-8 1-1-4z" fill="#9FB768"/>
<path transform="translate(1359,294)" d="m0 0 1 4-3 10-2 1 1-8z" fill="#EED1A5"/>
<path transform="translate(1707,68)" d="m0 0 2 1-6 12-3 5-2-1z" fill="#191412"/>
<path transform="translate(1846,1316)" d="m0 0 6 2 8 4-4 1-10-5z" fill="#B9A181"/>
<path transform="translate(1239,597)" d="m0 0h1v8l-2 8h-1v-9z" fill="#D0C78E"/>
<path transform="translate(570,484)" d="m0 0 6 3 2 6-5-2-3-5z" fill="#FEFDFB"/>
<path transform="translate(1246,131)" d="m0 0h1v9l-2 4h-1v-8z" fill="#EED1A5"/>
<path transform="translate(1732,1391)" d="m0 0 9 6 3 4-4-1-8-6z" fill="#CFB491"/>
<path transform="translate(1227,1296)" d="m0 0 3 1-1 3h-10l1-2z" fill="#FDFBF7"/>
<path transform="translate(883,383)" d="m0 0 3 3 3 6v4h-2l-4-10z" fill="#C9B78B"/>
<path transform="translate(1371,246)" d="m0 0h1l-1 9-2 5h-1l1-9z" fill="#9E896E"/>
<path transform="translate(1015,136)" d="m0 0 2 4 1 10-3-1z" fill="#F1D2A8"/>
<path transform="translate(1563,1185)" d="m0 0 6 1 7 4-3 1-10-5z" fill="#AC9578"/>
<path transform="translate(1375,231)" d="m0 0h1l-1 9-2 5h-1l1-9z" fill="#927F66"/>
</svg>
